<svg viewBox="0 0 300 300"><path fill="#A9ACB0" d="M277.792814,0 L22.1430112,0 C9.92675211,0 0,9.68301024 0,21.6159454 L0,278.344879 C0,290.290314 9.92675211,299.98999 22.1430112,299.98999 L277.792814,299.98999 C290.029906,299.98999 299.998323,290.292397 299.998323,278.344879 L299.998323,21.6159454 C299.998323,9.68301024 290.029906,0 277.792814,0 Z M44.4797658,112.464997 L88.9761978,112.464997 L88.9761978,255.631054 L44.4797658,255.631054 L44.4797658,112.464997 Z M66.7373565,41.3007053 C80.9618819,41.3007053 92.5219128,52.8607362 92.5219128,67.0915114 C92.5219128,81.3347861 80.9618819,92.894817 66.7373565,92.894817 C52.4753324,92.894817 40.9319676,81.3347861 40.9319676,67.0915114 C40.9340508,52.8628195 52.4774157,41.3007053 66.7373565,41.3007053 Z M116.885683,112.464997 L159.561343,112.464997 L159.561343,132.026845 L160.157156,132.026845 C166.098624,120.77097 180.61064,108.9047 202.257835,108.9047 C247.314665,108.9047 255.633137,138.557877 255.633137,177.102424 L255.633137,255.62897 L211.167954,255.62897 L211.167954,186.006294 C211.167954,169.404764 210.863797,148.049227 188.045809,148.049227 C164.894498,148.049227 161.34045,166.13404 161.34045,184.806334 L161.34045,255.62897 L116.8836,255.62897 L116.8836,112.464997 L116.885683,112.464997 Z"></path></svg>
