<?xml version="1.0" encoding="iso-8859-1"?>
<!-- Generator: Adobe Illustrator 19.0.0, SVG Export Plug-In . SVG Version: 6.00 Build 0)  -->
<svg version="1.1" id="Layer_1" xmlns="http://www.w3.org/2000/svg" xmlns:xlink="http://www.w3.org/1999/xlink" x="0px" y="0px"
	 viewBox="0 0 512 512" style="enable-background:new 0 0 512 512;" xml:space="preserve">
<polygon style="fill:#FCBD46;" points="418.185,189.744 337.092,268.791 356.236,380.405 256,327.714 256,71.909 306.123,173.466 
	"/>
<polygon style="fill:#FFD248;" points="256,71.909 256,327.714 155.764,380.405 174.908,268.791 93.815,189.744 205.877,173.466 "/>
<path style="fill:#546A79;" d="M256,7.99c126.496,0,229.044,102.548,229.044,229.044S382.496,466.078,256,466.078
	c-38.554,0-74.828-9.631-106.713-26.452l-53.085,53.085v-91.756c-42.666-41.601-69.246-99.618-69.246-163.921
	C26.956,110.538,129.504,7.99,256,7.99z M337.092,268.791l81.092-79.047l-112.061-16.278L256,71.909l-50.123,101.557L93.815,189.744
	l81.092,79.047l-19.144,111.614L256,327.714l100.236,52.691L337.092,268.791z"/>
<path d="M423.608,69.426C378.838,24.656,319.314,0,256,0S133.162,24.656,88.392,69.426c-44.769,44.77-69.426,104.295-69.426,167.608
	c0,63.212,24.562,122.47,69.246,167.257V512l62.613-62.613C183.43,465.55,219.664,474.068,256,474.068
	c63.314,0,122.838-24.656,167.608-69.426c44.769-44.77,69.426-104.294,69.426-167.608S468.378,114.196,423.608,69.426z M256,458.088
	c-36.227,0-70.876-8.59-102.985-25.528l-5.213-2.75l-43.612,43.612v-75.836l-2.411-2.352c-43.099-42.023-66.834-98.207-66.834-158.2
	C34.946,115.144,134.11,15.98,256,15.98s221.054,99.164,221.054,221.054S377.89,458.088,256,458.088z"/>
<path d="M311.429,166.164L256,53.856l-55.429,112.307L76.645,184.165l89.679,87.416l-21.17,123.429l110.848-58.269l110.848,58.269
	l-21.17-123.429l89.679-87.416L311.429,166.164z M110.986,195.324l100.197-14.554l36.827-74.618v216.738l-81.635,42.913
	l17.117-99.798L110.986,195.324z M345.624,365.801l-81.635-42.913V106.152l36.827,74.618l100.197,14.554l-72.507,70.679
	L345.624,365.801z"/>
<rect x="330.569" y="106.532" width="21.306" height="15.98"/>
<rect x="373.182" y="127.839" width="21.306" height="15.98"/>
<rect x="298.61" y="63.919" width="21.306" height="15.98"/>
<rect x="181.424" y="63.919" width="21.306" height="15.98"/>
<rect x="160.118" y="106.532" width="21.306" height="15.98"/>
<rect x="117.505" y="138.492" width="21.306" height="15.98"/>
<rect x="64.239" y="223.718" width="21.306" height="15.98"/>
<rect x="106.852" y="266.33" width="21.306" height="15.98"/>
<rect x="106.852" y="330.25" width="21.306" height="15.98"/>
<rect x="181.424" y="404.822" width="21.306" height="15.98"/>
<rect x="245.344" y="372.863" width="21.306" height="15.98"/>
<rect x="298.61" y="404.822" width="21.306" height="15.98"/>
<rect x="383.835" y="330.25" width="21.306" height="15.98"/>
<rect x="383.835" y="266.33" width="21.306" height="15.98"/>
<rect x="426.448" y="223.718" width="21.306" height="15.98"/>
<g>
</g>
<g>
</g>
<g>
</g>
<g>
</g>
<g>
</g>
<g>
</g>
<g>
</g>
<g>
</g>
<g>
</g>
<g>
</g>
<g>
</g>
<g>
</g>
<g>
</g>
<g>
</g>
<g>
</g>
</svg>
